<svg width="560" height="110" viewBox="0 0 560 110" fill="none" xmlns="http://www.w3.org/2000/svg">
<rect x="0.5" y="0.5" width="559" height="109" fill="#001B19"/>
<rect x="0.5" y="0.5" width="559" height="109" stroke="#AFA18F"/>
<path d="M135.103 77.896C130.495 77.896 126.826 76.6373 124.095 74.12C121.407 71.6027 120.063 68.0827 120.063 63.56V59.336H128.511V63.56C128.511 65.5653 129.066 67.144 130.175 68.296C131.284 69.4053 132.842 69.96 134.847 69.96C136.724 69.96 138.175 69.4053 139.199 68.296C140.266 67.1867 140.799 65.608 140.799 63.56V39.88H133.119V32.2H154.367V39.88H149.247V63.56C149.247 68.2107 147.988 71.7733 145.471 74.248C142.954 76.68 139.498 77.896 135.103 77.896ZM169.056 77.896C166.795 77.896 164.768 77.512 162.976 76.744C161.184 75.9333 159.755 74.7813 158.688 73.288C157.664 71.752 157.152 69.896 157.152 67.72C157.152 65.544 157.664 63.7307 158.688 62.28C159.755 60.7867 161.205 59.6773 163.04 58.952C164.917 58.184 167.051 57.8 169.44 57.8H178.144V56.008C178.144 54.5147 177.675 53.2987 176.736 52.36C175.797 51.3787 174.304 50.888 172.256 50.888C170.251 50.888 168.757 51.3573 167.776 52.296C166.795 53.192 166.155 54.3653 165.856 55.816L158.432 53.32C158.944 51.6987 159.755 50.2267 160.864 48.904C162.016 47.5387 163.531 46.4507 165.408 45.64C167.328 44.7867 169.653 44.36 172.384 44.36C176.565 44.36 179.872 45.4053 182.304 47.496C184.736 49.5867 185.952 52.616 185.952 56.584V68.424C185.952 69.704 186.549 70.344 187.744 70.344H190.304V77H184.928C183.349 77 182.048 76.616 181.024 75.848C180 75.08 179.488 74.056 179.488 72.776V72.712H178.272C178.101 73.224 177.717 73.9067 177.12 74.76C176.523 75.5707 175.584 76.296 174.304 76.936C173.024 77.576 171.275 77.896 169.056 77.896ZM170.464 71.368C172.725 71.368 174.56 70.7493 175.968 69.512C177.419 68.232 178.144 66.5467 178.144 64.456V63.816H170.016C168.523 63.816 167.349 64.136 166.496 64.776C165.643 65.416 165.216 66.312 165.216 67.464C165.216 68.616 165.664 69.5547 166.56 70.28C167.456 71.0053 168.757 71.368 170.464 71.368ZM200.874 77L190.762 45.256H199.338L206.698 71.112H207.85L215.21 45.256H223.786L213.674 77H200.874ZM238.216 77.896C235.955 77.896 233.928 77.512 232.136 76.744C230.344 75.9333 228.915 74.7813 227.848 73.288C226.824 71.752 226.312 69.896 226.312 67.72C226.312 65.544 226.824 63.7307 227.848 62.28C228.915 60.7867 230.365 59.6773 232.2 58.952C234.077 58.184 236.211 57.8 238.6 57.8H247.304V56.008C247.304 54.5147 246.835 53.2987 245.896 52.36C244.957 51.3787 243.464 50.888 241.416 50.888C239.411 50.888 237.917 51.3573 236.936 52.296C235.955 53.192 235.315 54.3653 235.016 55.816L227.592 53.32C228.104 51.6987 228.915 50.2267 230.024 48.904C231.176 47.5387 232.691 46.4507 234.568 45.64C236.488 44.7867 238.813 44.36 241.544 44.36C245.725 44.36 249.032 45.4053 251.464 47.496C253.896 49.5867 255.112 52.616 255.112 56.584V68.424C255.112 69.704 255.709 70.344 256.904 70.344H259.464V77H254.088C252.509 77 251.208 76.616 250.184 75.848C249.16 75.08 248.648 74.056 248.648 72.776V72.712H247.432C247.261 73.224 246.877 73.9067 246.28 74.76C245.683 75.5707 244.744 76.296 243.464 76.936C242.184 77.576 240.435 77.896 238.216 77.896ZM239.624 71.368C241.885 71.368 243.72 70.7493 245.128 69.512C246.579 68.232 247.304 66.5467 247.304 64.456V63.816H239.176C237.683 63.816 236.509 64.136 235.656 64.776C234.803 65.416 234.376 66.312 234.376 67.464C234.376 68.616 234.824 69.5547 235.72 70.28C236.616 71.0053 237.917 71.368 239.624 71.368ZM278.124 77.896C273.985 77.896 270.593 77 267.948 75.208C265.303 73.416 263.703 70.856 263.148 67.528L270.572 65.608C270.871 67.1013 271.361 68.2747 272.044 69.128C272.769 69.9813 273.644 70.6 274.668 70.984C275.735 71.3253 276.887 71.496 278.124 71.496C280.001 71.496 281.388 71.176 282.284 70.536C283.18 69.8533 283.628 69.0213 283.628 68.04C283.628 67.0587 283.201 66.312 282.348 65.8C281.495 65.2453 280.129 64.7973 278.252 64.456L276.46 64.136C274.241 63.7093 272.215 63.1333 270.38 62.408C268.545 61.64 267.073 60.5947 265.964 59.272C264.855 57.9493 264.3 56.2427 264.3 54.152C264.3 50.9947 265.452 48.584 267.756 46.92C270.06 45.2133 273.089 44.36 276.844 44.36C280.385 44.36 283.329 45.1493 285.676 46.728C288.023 48.3067 289.559 50.376 290.284 52.936L282.796 55.24C282.455 53.6187 281.751 52.4667 280.684 51.784C279.66 51.1013 278.38 50.76 276.844 50.76C275.308 50.76 274.135 51.0373 273.324 51.592C272.513 52.104 272.108 52.8293 272.108 53.768C272.108 54.792 272.535 55.56 273.388 56.072C274.241 56.5413 275.393 56.904 276.844 57.16L278.636 57.48C281.025 57.9067 283.18 58.4827 285.1 59.208C287.063 59.8907 288.599 60.8933 289.708 62.216C290.86 63.496 291.436 65.2453 291.436 67.464C291.436 70.792 290.22 73.3733 287.788 75.208C285.399 77 282.177 77.896 278.124 77.896ZM313.244 77.896C310.172 77.896 307.378 77.256 304.86 75.976C302.386 74.696 300.423 72.84 298.972 70.408C297.522 67.976 296.796 65.032 296.796 61.576V60.68C296.796 57.224 297.522 54.28 298.972 51.848C300.423 49.416 302.386 47.56 304.86 46.28C307.378 45 310.172 44.36 313.244 44.36C316.274 44.36 318.876 44.8933 321.052 45.96C323.228 47.0267 324.978 48.4987 326.3 50.376C327.666 52.2107 328.562 54.3013 328.988 56.648L321.18 58.312C321.01 57.032 320.626 55.88 320.028 54.856C319.431 53.832 318.578 53.0213 317.468 52.424C316.402 51.8267 315.058 51.528 313.436 51.528C311.815 51.528 310.343 51.8907 309.02 52.616C307.74 53.2987 306.716 54.344 305.948 55.752C305.223 57.1173 304.86 58.8027 304.86 60.808V61.448C304.86 63.4533 305.223 65.16 305.948 66.568C306.716 67.9333 307.74 68.9787 309.02 69.704C310.343 70.3867 311.815 70.728 313.436 70.728C315.868 70.728 317.703 70.1093 318.94 68.872C320.22 67.592 321.031 65.928 321.372 63.88L329.18 65.736C328.626 67.9973 327.666 70.0667 326.3 71.944C324.978 73.7787 323.228 75.2293 321.052 76.296C318.876 77.3627 316.274 77.896 313.244 77.896ZM335.662 77V45.256H343.598V48.84H344.75C345.22 47.56 345.988 46.6213 347.054 46.024C348.164 45.4267 349.444 45.128 350.894 45.128H354.734V52.296H350.766C348.718 52.296 347.033 52.8507 345.71 53.96C344.388 55.0267 343.726 56.6907 343.726 58.952V77H335.662ZM360.867 77V45.256H368.931V77H360.867ZM364.899 41.544C363.449 41.544 362.211 41.0747 361.187 40.136C360.206 39.1973 359.715 37.96 359.715 36.424C359.715 34.888 360.206 33.6507 361.187 32.712C362.211 31.7733 363.449 31.304 364.899 31.304C366.393 31.304 367.63 31.7733 368.611 32.712C369.593 33.6507 370.083 34.888 370.083 36.424C370.083 37.96 369.593 39.1973 368.611 40.136C367.63 41.0747 366.393 41.544 364.899 41.544ZM377.697 89.8V45.256H385.633V49.096H386.785C387.511 47.8587 388.641 46.7707 390.177 45.832C391.714 44.8507 393.911 44.36 396.77 44.36C399.33 44.36 401.698 45 403.874 46.28C406.05 47.5173 407.799 49.352 409.122 51.784C410.444 54.216 411.105 57.16 411.105 60.616V61.64C411.105 65.096 410.444 68.04 409.122 70.472C407.799 72.904 406.05 74.76 403.874 76.04C401.698 77.2773 399.33 77.896 396.77 77.896C394.85 77.896 393.228 77.6613 391.906 77.192C390.626 76.7653 389.58 76.2107 388.769 75.528C388.001 74.8027 387.383 74.0773 386.913 73.352H385.761V89.8H377.697ZM394.337 70.856C396.855 70.856 398.924 70.0667 400.545 68.488C402.209 66.8667 403.042 64.52 403.042 61.448V60.808C403.042 57.736 402.209 55.4107 400.545 53.832C398.881 52.2107 396.812 51.4 394.337 51.4C391.863 51.4 389.793 52.2107 388.129 53.832C386.465 55.4107 385.633 57.736 385.633 60.808V61.448C385.633 64.52 386.465 66.8667 388.129 68.488C389.793 70.0667 391.863 70.856 394.337 70.856ZM429.437 77C427.347 77 425.64 76.36 424.317 75.08C423.037 73.7573 422.397 72.008 422.397 69.832V51.912H414.461V45.256H422.397V35.4H430.461V45.256H439.165V51.912H430.461V68.424C430.461 69.704 431.059 70.344 432.253 70.344H438.397V77H429.437Z" fill="#AFA18F"/>
</svg>
