<svg width="560" height="110" viewBox="0 0 560 110" fill="none" xmlns="http://www.w3.org/2000/svg">
<rect x="0.5" y="0.5" width="559" height="109" fill="#001B19"/>
<rect x="0.5" y="0.5" width="559" height="109" stroke="#AFA18F"/>
<path d="M192.751 77V32.2H220.911V39.88H201.199V50.696H219.375V58.376H201.199V77H192.751ZM227.025 77V45.256H235.089V77H227.025ZM231.057 41.544C229.606 41.544 228.369 41.0747 227.345 40.136C226.364 39.1973 225.873 37.96 225.873 36.424C225.873 34.888 226.364 33.6507 227.345 32.712C228.369 31.7733 229.606 31.304 231.057 31.304C232.55 31.304 233.788 31.7733 234.769 32.712C235.75 33.6507 236.241 34.888 236.241 36.424C236.241 37.96 235.75 39.1973 234.769 40.136C233.788 41.0747 232.55 41.544 231.057 41.544ZM242.319 61.256V60.232C242.319 56.904 242.98 54.0667 244.303 51.72C245.626 49.3307 247.375 47.5173 249.551 46.28C251.77 45 254.18 44.36 256.783 44.36C259.684 44.36 261.882 44.872 263.375 45.896C264.868 46.92 265.956 47.9867 266.639 49.096H267.791V45.256H275.727V82.632C275.727 84.808 275.087 86.536 273.807 87.816C272.527 89.1387 270.82 89.8 268.687 89.8H247.439V82.76H265.871C267.066 82.76 267.663 82.12 267.663 80.84V72.584H266.511C266.084 73.2667 265.487 73.9707 264.719 74.696C263.951 75.3787 262.927 75.9547 261.647 76.424C260.367 76.8933 258.746 77.128 256.783 77.128C254.18 77.128 251.77 76.5093 249.551 75.272C247.375 73.992 245.626 72.1787 244.303 69.832C242.98 67.4427 242.319 64.584 242.319 61.256ZM259.087 70.088C261.562 70.088 263.631 69.2987 265.295 67.72C266.959 66.1413 267.791 63.9227 267.791 61.064V60.424C267.791 57.5227 266.959 55.304 265.295 53.768C263.674 52.1893 261.604 51.4 259.087 51.4C256.612 51.4 254.543 52.1893 252.879 53.768C251.215 55.304 250.383 57.5227 250.383 60.424V61.064C250.383 63.9227 251.215 66.1413 252.879 67.72C254.543 69.2987 256.612 70.088 259.087 70.088ZM284.497 77V45.256H292.433V48.712H293.585C294.14 47.6453 295.057 46.728 296.337 45.96C297.617 45.1493 299.303 44.744 301.393 44.744C303.655 44.744 305.468 45.192 306.833 46.088C308.199 46.9413 309.244 48.072 309.969 49.48H311.121C311.847 48.1147 312.871 46.984 314.193 46.088C315.516 45.192 317.393 44.744 319.825 44.744C321.788 44.744 323.559 45.1707 325.137 46.024C326.759 46.8347 328.039 48.0933 328.977 49.8C329.959 51.464 330.449 53.576 330.449 56.136V77H322.385V56.712C322.385 54.9627 321.937 53.6613 321.041 52.808C320.145 51.912 318.887 51.464 317.265 51.464C315.431 51.464 314.001 52.0613 312.977 53.256C311.996 54.408 311.505 56.072 311.505 58.248V77H303.441V56.712C303.441 54.9627 302.993 53.6613 302.097 52.808C301.201 51.912 299.943 51.464 298.321 51.464C296.487 51.464 295.057 52.0613 294.033 53.256C293.052 54.408 292.561 56.072 292.561 58.248V77H284.497ZM348.809 77.896C346.547 77.896 344.521 77.512 342.729 76.744C340.937 75.9333 339.507 74.7813 338.441 73.288C337.417 71.752 336.905 69.896 336.905 67.72C336.905 65.544 337.417 63.7307 338.441 62.28C339.507 60.7867 340.958 59.6773 342.793 58.952C344.67 58.184 346.803 57.8 349.193 57.8H357.897V56.008C357.897 54.5147 357.427 53.2987 356.489 52.36C355.55 51.3787 354.057 50.888 352.009 50.888C350.003 50.888 348.51 51.3573 347.529 52.296C346.547 53.192 345.907 54.3653 345.609 55.816L338.185 53.32C338.697 51.6987 339.507 50.2267 340.617 48.904C341.769 47.5387 343.283 46.4507 345.161 45.64C347.081 44.7867 349.406 44.36 352.137 44.36C356.318 44.36 359.625 45.4053 362.057 47.496C364.489 49.5867 365.705 52.616 365.705 56.584V68.424C365.705 69.704 366.302 70.344 367.497 70.344H370.057V77H364.681C363.102 77 361.801 76.616 360.777 75.848C359.753 75.08 359.241 74.056 359.241 72.776V72.712H358.025C357.854 73.224 357.47 73.9067 356.873 74.76C356.275 75.5707 355.337 76.296 354.057 76.936C352.777 77.576 351.027 77.896 348.809 77.896ZM350.217 71.368C352.478 71.368 354.313 70.7493 355.721 69.512C357.171 68.232 357.897 66.5467 357.897 64.456V63.816H349.769C348.275 63.816 347.102 64.136 346.249 64.776C345.395 65.416 344.969 66.312 344.969 67.464C344.969 68.616 345.417 69.5547 346.313 70.28C347.209 71.0053 348.51 71.368 350.217 71.368Z" fill="#AFA18F"/>
</svg>
