<svg width="560" height="110" viewBox="0 0 560 110" fill="none" xmlns="http://www.w3.org/2000/svg">
<rect x="0.5" y="0.5" width="559" height="109" fill="#001B19"/>
<rect x="0.5" y="0.5" width="559" height="109" stroke="#AFA18F"/>
<path d="M169.906 77V39.88H156.85V32.2H191.41V39.88H178.354V77H169.906ZM201.605 77.896C199.343 77.896 197.317 77.512 195.525 76.744C193.733 75.9333 192.303 74.7813 191.237 73.288C190.213 71.752 189.701 69.896 189.701 67.72C189.701 65.544 190.213 63.7307 191.237 62.28C192.303 60.7867 193.754 59.6773 195.589 58.952C197.466 58.184 199.599 57.8 201.989 57.8H210.693V56.008C210.693 54.5147 210.223 53.2987 209.285 52.36C208.346 51.3787 206.853 50.888 204.805 50.888C202.799 50.888 201.306 51.3573 200.325 52.296C199.343 53.192 198.703 54.3653 198.405 55.816L190.981 53.32C191.493 51.6987 192.303 50.2267 193.413 48.904C194.565 47.5387 196.079 46.4507 197.957 45.64C199.877 44.7867 202.202 44.36 204.933 44.36C209.114 44.36 212.421 45.4053 214.853 47.496C217.285 49.5867 218.501 52.616 218.501 56.584V68.424C218.501 69.704 219.098 70.344 220.293 70.344H222.853V77H217.477C215.898 77 214.597 76.616 213.573 75.848C212.549 75.08 212.037 74.056 212.037 72.776V72.712H210.821C210.65 73.224 210.266 73.9067 209.669 74.76C209.071 75.5707 208.133 76.296 206.853 76.936C205.573 77.576 203.823 77.896 201.605 77.896ZM203.013 71.368C205.274 71.368 207.109 70.7493 208.517 69.512C209.967 68.232 210.693 66.5467 210.693 64.456V63.816H202.565C201.071 63.816 199.898 64.136 199.045 64.776C198.191 65.416 197.765 66.312 197.765 67.464C197.765 68.616 198.213 69.5547 199.109 70.28C200.005 71.0053 201.306 71.368 203.013 71.368ZM228.579 77V45.256H236.643V77H228.579ZM232.611 41.544C231.16 41.544 229.923 41.0747 228.899 40.136C227.917 39.1973 227.427 37.96 227.427 36.424C227.427 34.888 227.917 33.6507 228.899 32.712C229.923 31.7733 231.16 31.304 232.611 31.304C234.104 31.304 235.341 31.7733 236.323 32.712C237.304 33.6507 237.795 34.888 237.795 36.424C237.795 37.96 237.304 39.1973 236.323 40.136C235.341 41.0747 234.104 41.544 232.611 41.544ZM245.409 77V32.2H253.473V77H245.409ZM264.799 77L260.319 45.256H268.319L271.135 71.56H272.287L276.383 45.256H289.311L293.407 71.56H294.559L297.375 45.256H305.375L300.895 77H287.519L283.423 50.696H282.271L278.175 77H264.799ZM312.256 77V45.256H320.32V77H312.256ZM316.288 41.544C314.838 41.544 313.6 41.0747 312.576 40.136C311.595 39.1973 311.104 37.96 311.104 36.424C311.104 34.888 311.595 33.6507 312.576 32.712C313.6 31.7733 314.838 31.304 316.288 31.304C317.782 31.304 319.019 31.7733 320 32.712C320.982 33.6507 321.472 34.888 321.472 36.424C321.472 37.96 320.982 39.1973 320 40.136C319.019 41.0747 317.782 41.544 316.288 41.544ZM329.086 77V45.256H337.022V49.416H338.174C338.686 48.3067 339.646 47.2613 341.054 46.28C342.462 45.256 344.596 44.744 347.454 44.744C349.929 44.744 352.084 45.32 353.918 46.472C355.796 47.5813 357.246 49.1387 358.27 51.144C359.294 53.1067 359.806 55.4107 359.806 58.056V77H351.742V58.696C351.742 56.3067 351.145 54.5147 349.95 53.32C348.798 52.1253 347.134 51.528 344.958 51.528C342.484 51.528 340.564 52.36 339.198 54.024C337.833 55.6453 337.15 57.928 337.15 60.872V77H329.086ZM381.154 77.896C378.636 77.896 376.268 77.2773 374.05 76.04C371.874 74.76 370.124 72.904 368.802 70.472C367.479 68.04 366.818 65.096 366.818 61.64V60.616C366.818 57.16 367.479 54.216 368.802 51.784C370.124 49.352 371.874 47.5173 374.05 46.28C376.226 45 378.594 44.36 381.154 44.36C383.074 44.36 384.674 44.5947 385.954 45.064C387.276 45.4907 388.343 46.0453 389.154 46.728C389.964 47.4107 390.583 48.136 391.01 48.904H392.162V32.2H400.226V77H392.29V73.16H391.138C390.412 74.3547 389.282 75.4427 387.746 76.424C386.252 77.4053 384.055 77.896 381.154 77.896ZM383.586 70.856C386.06 70.856 388.13 70.0667 389.794 68.488C391.458 66.8667 392.29 64.52 392.29 61.448V60.808C392.29 57.736 391.458 55.4107 389.794 53.832C388.172 52.2107 386.103 51.4 383.586 51.4C381.111 51.4 379.042 52.2107 377.378 53.832C375.714 55.4107 374.882 57.736 374.882 60.808V61.448C374.882 64.52 375.714 66.8667 377.378 68.488C379.042 70.0667 381.111 70.856 383.586 70.856Z" fill="#AFA18F"/>
</svg>
