<svg width="560" height="110" viewBox="0 0 560 110" fill="none" xmlns="http://www.w3.org/2000/svg">
<rect x="0.5" y="0.5" width="559" height="109" fill="#001B19"/>
<rect x="0.5" y="0.5" width="559" height="109" stroke="#AFA18F"/>
<path d="M221.531 77.896C218.075 77.896 215.024 77.2773 212.379 76.04C209.734 74.8027 207.664 73.032 206.171 70.728C204.678 68.424 203.931 65.6507 203.931 62.408V60.616H212.251V62.408C212.251 65.096 213.083 67.1227 214.747 68.488C216.411 69.8107 218.672 70.472 221.531 70.472C224.432 70.472 226.587 69.896 227.995 68.744C229.446 67.592 230.171 66.12 230.171 64.328C230.171 63.0907 229.808 62.088 229.083 61.32C228.4 60.552 227.376 59.9333 226.011 59.464C224.688 58.952 223.067 58.4827 221.147 58.056L219.675 57.736C216.603 57.0533 213.958 56.2 211.739 55.176C209.563 54.1093 207.878 52.7227 206.683 51.016C205.531 49.3093 204.955 47.0907 204.955 44.36C204.955 41.6293 205.595 39.304 206.875 37.384C208.198 35.4213 210.032 33.928 212.379 32.904C214.768 31.8373 217.563 31.304 220.763 31.304C223.963 31.304 226.8 31.8587 229.275 32.968C231.792 34.0347 233.755 35.656 235.163 37.832C236.614 39.9653 237.339 42.6533 237.339 45.896V47.816H229.019V45.896C229.019 44.1893 228.678 42.824 227.995 41.8C227.355 40.7333 226.416 39.9653 225.179 39.496C223.942 38.984 222.47 38.728 220.763 38.728C218.203 38.728 216.304 39.2187 215.067 40.2C213.872 41.1387 213.275 42.44 213.275 44.104C213.275 45.2133 213.552 46.152 214.107 46.92C214.704 47.688 215.579 48.328 216.731 48.84C217.883 49.352 219.355 49.8 221.147 50.184L222.619 50.504C225.819 51.1867 228.592 52.0613 230.939 53.128C233.328 54.1947 235.184 55.6027 236.507 57.352C237.83 59.1013 238.491 61.3413 238.491 64.072C238.491 66.8027 237.787 69.2133 236.379 71.304C235.014 73.352 233.051 74.9733 230.491 76.168C227.974 77.32 224.987 77.896 221.531 77.896ZM241.549 77L253.325 32.2H268.045L279.822 77H271.118L268.686 67.144H252.685L250.253 77H241.549ZM254.669 59.336H266.701L261.261 37.512H260.11L254.669 59.336ZM300.566 77.896C297.11 77.896 294.059 77.2773 291.414 76.04C288.769 74.8027 286.699 73.032 285.206 70.728C283.713 68.424 282.966 65.6507 282.966 62.408V60.616H291.286V62.408C291.286 65.096 292.118 67.1227 293.782 68.488C295.446 69.8107 297.707 70.472 300.566 70.472C303.467 70.472 305.622 69.896 307.03 68.744C308.481 67.592 309.206 66.12 309.206 64.328C309.206 63.0907 308.843 62.088 308.118 61.32C307.435 60.552 306.411 59.9333 305.046 59.464C303.723 58.952 302.102 58.4827 300.182 58.056L298.71 57.736C295.638 57.0533 292.993 56.2 290.774 55.176C288.598 54.1093 286.913 52.7227 285.718 51.016C284.566 49.3093 283.99 47.0907 283.99 44.36C283.99 41.6293 284.63 39.304 285.91 37.384C287.233 35.4213 289.067 33.928 291.414 32.904C293.803 31.8373 296.598 31.304 299.798 31.304C302.998 31.304 305.835 31.8587 308.31 32.968C310.827 34.0347 312.79 35.656 314.198 37.832C315.649 39.9653 316.374 42.6533 316.374 45.896V47.816H308.054V45.896C308.054 44.1893 307.713 42.824 307.03 41.8C306.39 40.7333 305.451 39.9653 304.214 39.496C302.977 38.984 301.505 38.728 299.798 38.728C297.238 38.728 295.339 39.2187 294.102 40.2C292.907 41.1387 292.31 42.44 292.31 44.104C292.31 45.2133 292.587 46.152 293.142 46.92C293.739 47.688 294.614 48.328 295.766 48.84C296.918 49.352 298.39 49.8 300.182 50.184L301.654 50.504C304.854 51.1867 307.627 52.0613 309.974 53.128C312.363 54.1947 314.219 55.6027 315.542 57.352C316.865 59.1013 317.526 61.3413 317.526 64.072C317.526 66.8027 316.822 69.2133 315.414 71.304C314.049 73.352 312.086 74.9733 309.526 76.168C307.009 77.32 304.022 77.896 300.566 77.896ZM339.208 77.896C335.752 77.896 332.702 77.2773 330.056 76.04C327.411 74.8027 325.342 73.032 323.848 70.728C322.355 68.424 321.608 65.6507 321.608 62.408V60.616H329.928V62.408C329.928 65.096 330.76 67.1227 332.424 68.488C334.088 69.8107 336.35 70.472 339.208 70.472C342.11 70.472 344.264 69.896 345.672 68.744C347.123 67.592 347.848 66.12 347.848 64.328C347.848 63.0907 347.486 62.088 346.76 61.32C346.078 60.552 345.054 59.9333 343.688 59.464C342.366 58.952 340.744 58.4827 338.824 58.056L337.352 57.736C334.28 57.0533 331.635 56.2 329.416 55.176C327.24 54.1093 325.555 52.7227 324.36 51.016C323.208 49.3093 322.632 47.0907 322.632 44.36C322.632 41.6293 323.272 39.304 324.552 37.384C325.875 35.4213 327.71 33.928 330.056 32.904C332.446 31.8373 335.24 31.304 338.44 31.304C341.64 31.304 344.478 31.8587 346.952 32.968C349.47 34.0347 351.432 35.656 352.84 37.832C354.291 39.9653 355.016 42.6533 355.016 45.896V47.816H346.696V45.896C346.696 44.1893 346.355 42.824 345.672 41.8C345.032 40.7333 344.094 39.9653 342.856 39.496C341.619 38.984 340.147 38.728 338.44 38.728C335.88 38.728 333.982 39.2187 332.744 40.2C331.55 41.1387 330.952 42.44 330.952 44.104C330.952 45.2133 331.23 46.152 331.784 46.92C332.382 47.688 333.256 48.328 334.408 48.84C335.56 49.352 337.032 49.8 338.824 50.184L340.296 50.504C343.496 51.1867 346.27 52.0613 348.616 53.128C351.006 54.1947 352.862 55.6027 354.184 57.352C355.507 59.1013 356.168 61.3413 356.168 64.072C356.168 66.8027 355.464 69.2133 354.056 71.304C352.691 73.352 350.728 74.9733 348.168 76.168C345.651 77.32 342.664 77.896 339.208 77.896Z" fill="#AFA18F"/>
</svg>
