<svg width="560" height="110" viewBox="0 0 560 110" fill="none" xmlns="http://www.w3.org/2000/svg">
<rect x="0.5" y="0.5" width="559" height="109" fill="#001B19"/>
<rect x="0.5" y="0.5" width="559" height="109" stroke="#AFA18F"/>
<path d="M61.9628 77V32.2H90.1228V39.88H70.4108V50.696H88.5868V58.376H70.4108V77H61.9628ZM96.2363 77V45.256H104.172V48.84H105.324C105.794 47.56 106.562 46.6213 107.628 46.024C108.738 45.4267 110.018 45.128 111.468 45.128H115.308V52.296H111.34C109.292 52.296 107.607 52.8507 106.284 53.96C104.962 55.0267 104.3 56.6907 104.3 58.952V77H96.2363ZM130.547 77.896C128.286 77.896 126.259 77.512 124.467 76.744C122.675 75.9333 121.246 74.7813 120.179 73.288C119.155 71.752 118.643 69.896 118.643 67.72C118.643 65.544 119.155 63.7307 120.179 62.28C121.246 60.7867 122.697 59.6773 124.531 58.952C126.409 58.184 128.542 57.8 130.931 57.8H139.635V56.008C139.635 54.5147 139.166 53.2987 138.227 52.36C137.289 51.3787 135.795 50.888 133.747 50.888C131.742 50.888 130.249 51.3573 129.267 52.296C128.286 53.192 127.646 54.3653 127.347 55.816L119.923 53.32C120.435 51.6987 121.246 50.2267 122.355 48.904C123.507 47.5387 125.022 46.4507 126.899 45.64C128.819 44.7867 131.145 44.36 133.875 44.36C138.057 44.36 141.363 45.4053 143.795 47.496C146.227 49.5867 147.443 52.616 147.443 56.584V68.424C147.443 69.704 148.041 70.344 149.235 70.344H151.795V77H146.419C144.841 77 143.539 76.616 142.515 75.848C141.491 75.08 140.979 74.056 140.979 72.776V72.712H139.763C139.593 73.224 139.209 73.9067 138.611 74.76C138.014 75.5707 137.075 76.296 135.795 76.936C134.515 77.576 132.766 77.896 130.547 77.896ZM131.955 71.368C134.217 71.368 136.051 70.7493 137.459 69.512C138.91 68.232 139.635 66.5467 139.635 64.456V63.816H131.507C130.014 63.816 128.841 64.136 127.987 64.776C127.134 65.416 126.707 66.312 126.707 67.464C126.707 68.616 127.155 69.5547 128.051 70.28C128.947 71.0053 130.249 71.368 131.955 71.368ZM157.521 77V45.256H165.457V48.712H166.609C167.164 47.6453 168.081 46.728 169.361 45.96C170.641 45.1493 172.327 44.744 174.417 44.744C176.679 44.744 178.492 45.192 179.857 46.088C181.223 46.9413 182.268 48.072 182.993 49.48H184.145C184.871 48.1147 185.895 46.984 187.217 46.088C188.54 45.192 190.417 44.744 192.849 44.744C194.812 44.744 196.583 45.1707 198.161 46.024C199.783 46.8347 201.063 48.0933 202.001 49.8C202.983 51.464 203.473 53.576 203.473 56.136V77H195.409V56.712C195.409 54.9627 194.961 53.6613 194.065 52.808C193.169 51.912 191.911 51.464 190.289 51.464C188.455 51.464 187.025 52.0613 186.001 53.256C185.02 54.408 184.529 56.072 184.529 58.248V77H176.465V56.712C176.465 54.9627 176.017 53.6613 175.121 52.808C174.225 51.912 172.967 51.464 171.345 51.464C169.511 51.464 168.081 52.0613 167.057 53.256C166.076 54.408 165.585 56.072 165.585 58.248V77H157.521ZM226.44 77.896C223.283 77.896 220.488 77.2347 218.056 75.912C215.667 74.5467 213.79 72.648 212.424 70.216C211.102 67.7413 210.44 64.84 210.44 61.512V60.744C210.44 57.416 211.102 54.536 212.424 52.104C213.747 49.6293 215.603 47.7307 217.992 46.408C220.382 45.0427 223.155 44.36 226.312 44.36C229.427 44.36 232.136 45.064 234.44 46.472C236.744 47.8373 238.536 49.7573 239.816 52.232C241.096 54.664 241.736 57.5013 241.736 60.744V63.496H218.632C218.718 65.672 219.528 67.4427 221.064 68.808C222.6 70.1733 224.478 70.856 226.696 70.856C228.958 70.856 230.622 70.3653 231.688 69.384C232.755 68.4027 233.566 67.3147 234.12 66.12L240.712 69.576C240.115 70.6853 239.24 71.9013 238.088 73.224C236.979 74.504 235.486 75.6133 233.608 76.552C231.731 77.448 229.342 77.896 226.44 77.896ZM218.696 57.48H233.544C233.374 55.6453 232.627 54.1733 231.304 53.064C230.024 51.9547 228.339 51.4 226.248 51.4C224.072 51.4 222.344 51.9547 221.064 53.064C219.784 54.1733 218.995 55.6453 218.696 57.48ZM248.744 77V45.256H256.68V48.84H257.832C258.301 47.56 259.069 46.6213 260.136 46.024C261.245 45.4267 262.525 45.128 263.976 45.128H267.816V52.296H263.848C261.8 52.296 260.114 52.8507 258.792 53.96C257.469 55.0267 256.808 56.6907 256.808 58.952V77H248.744ZM290.029 77V45.256H297.965V48.712H299.117C299.671 47.6453 300.589 46.728 301.869 45.96C303.149 45.1493 304.834 44.744 306.925 44.744C309.186 44.744 310.999 45.192 312.365 46.088C313.73 46.9413 314.775 48.072 315.501 49.48H316.653C317.378 48.1147 318.402 46.984 319.725 46.088C321.047 45.192 322.925 44.744 325.357 44.744C327.319 44.744 329.09 45.1707 330.669 46.024C332.29 46.8347 333.57 48.0933 334.509 49.8C335.49 51.464 335.981 53.576 335.981 56.136V77H327.917V56.712C327.917 54.9627 327.469 53.6613 326.573 52.808C325.677 51.912 324.418 51.464 322.797 51.464C320.962 51.464 319.533 52.0613 318.509 53.256C317.527 54.408 317.037 56.072 317.037 58.248V77H308.973V56.712C308.973 54.9627 308.525 53.6613 307.629 52.808C306.733 51.912 305.474 51.464 303.853 51.464C302.018 51.464 300.589 52.0613 299.565 53.256C298.583 54.408 298.093 56.072 298.093 58.248V77H290.029ZM359.588 77.896C356.43 77.896 353.593 77.256 351.076 75.976C348.558 74.696 346.574 72.84 345.124 70.408C343.673 67.976 342.948 65.0533 342.948 61.64V60.616C342.948 57.2027 343.673 54.28 345.124 51.848C346.574 49.416 348.558 47.56 351.076 46.28C353.593 45 356.43 44.36 359.588 44.36C362.745 44.36 365.582 45 368.1 46.28C370.617 47.56 372.601 49.416 374.052 51.848C375.502 54.28 376.228 57.2027 376.228 60.616V61.64C376.228 65.0533 375.502 67.976 374.052 70.408C372.601 72.84 370.617 74.696 368.1 75.976C365.582 77.256 362.745 77.896 359.588 77.896ZM359.588 70.728C362.062 70.728 364.11 69.9387 365.732 68.36C367.353 66.7387 368.164 64.4347 368.164 61.448V60.808C368.164 57.8213 367.353 55.5387 365.732 53.96C364.153 52.3387 362.105 51.528 359.588 51.528C357.113 51.528 355.065 52.3387 353.444 53.96C351.822 55.5387 351.012 57.8213 351.012 60.808V61.448C351.012 64.4347 351.822 66.7387 353.444 68.36C355.065 69.9387 357.113 70.728 359.588 70.728ZM394.599 77C392.508 77 390.801 76.36 389.479 75.08C388.199 73.7573 387.559 72.008 387.559 69.832V51.912H379.623V45.256H387.559V35.4H395.623V45.256H404.327V51.912H395.623V68.424C395.623 69.704 396.22 70.344 397.415 70.344H403.559V77H394.599ZM411.456 77V45.256H419.52V77H411.456ZM415.488 41.544C414.038 41.544 412.8 41.0747 411.776 40.136C410.795 39.1973 410.304 37.96 410.304 36.424C410.304 34.888 410.795 33.6507 411.776 32.712C412.8 31.7733 414.038 31.304 415.488 31.304C416.982 31.304 418.219 31.7733 419.2 32.712C420.182 33.6507 420.672 34.888 420.672 36.424C420.672 37.96 420.182 39.1973 419.2 40.136C418.219 41.0747 416.982 41.544 415.488 41.544ZM443.39 77.896C440.233 77.896 437.396 77.256 434.878 75.976C432.361 74.696 430.377 72.84 428.926 70.408C427.476 67.976 426.75 65.0533 426.75 61.64V60.616C426.75 57.2027 427.476 54.28 428.926 51.848C430.377 49.416 432.361 47.56 434.878 46.28C437.396 45 440.233 44.36 443.39 44.36C446.548 44.36 449.385 45 451.902 46.28C454.42 47.56 456.404 49.416 457.854 51.848C459.305 54.28 460.03 57.2027 460.03 60.616V61.64C460.03 65.0533 459.305 67.976 457.854 70.408C456.404 72.84 454.42 74.696 451.902 75.976C449.385 77.256 446.548 77.896 443.39 77.896ZM443.39 70.728C445.865 70.728 447.913 69.9387 449.534 68.36C451.156 66.7387 451.966 64.4347 451.966 61.448V60.808C451.966 57.8213 451.156 55.5387 449.534 53.96C447.956 52.3387 445.908 51.528 443.39 51.528C440.916 51.528 438.868 52.3387 437.246 53.96C435.625 55.5387 434.814 57.8213 434.814 60.808V61.448C434.814 64.4347 435.625 66.7387 437.246 68.36C438.868 69.9387 440.916 70.728 443.39 70.728ZM467.304 77V45.256H475.24V49.416H476.392C476.904 48.3067 477.864 47.2613 479.272 46.28C480.68 45.256 482.813 44.744 485.672 44.744C488.146 44.744 490.301 45.32 492.136 46.472C494.013 47.5813 495.464 49.1387 496.488 51.144C497.512 53.1067 498.024 55.4107 498.024 58.056V77H489.96V58.696C489.96 56.3067 489.362 54.5147 488.168 53.32C487.016 52.1253 485.352 51.528 483.176 51.528C480.701 51.528 478.781 52.36 477.416 54.024C476.05 55.6453 475.368 57.928 475.368 60.872V77H467.304Z" fill="#AFA18F"/>
</svg>
