<svg width="560" height="110" viewBox="0 0 560 110" fill="none" xmlns="http://www.w3.org/2000/svg">
<rect x="0.5" y="0.5" width="559" height="109" fill="#001B19"/>
<rect x="0.5" y="0.5" width="559" height="109" stroke="#AFA18F"/>
<path d="M194.876 77V32.2H214.332C217.148 32.2 219.602 32.6907 221.692 33.672C223.783 34.6533 225.404 36.04 226.556 37.832C227.708 39.624 228.284 41.736 228.284 44.168V44.936C228.284 47.624 227.644 49.8 226.364 51.464C225.084 53.128 223.506 54.344 221.628 55.112V56.264C223.335 56.3493 224.658 56.9467 225.596 58.056C226.535 59.1227 227.004 60.552 227.004 62.344V77H218.556V63.56C218.556 62.536 218.279 61.704 217.724 61.064C217.212 60.424 216.338 60.104 215.1 60.104H203.324V77H194.876ZM203.324 52.424H213.436C215.442 52.424 216.999 51.8907 218.108 50.824C219.26 49.7147 219.836 48.264 219.836 46.472V45.832C219.836 44.04 219.282 42.6107 218.172 41.544C217.063 40.4347 215.484 39.88 213.436 39.88H203.324V52.424ZM249.864 77.896C246.707 77.896 243.912 77.2347 241.48 75.912C239.091 74.5467 237.213 72.648 235.848 70.216C234.525 67.7413 233.864 64.84 233.864 61.512V60.744C233.864 57.416 234.525 54.536 235.848 52.104C237.171 49.6293 239.027 47.7307 241.416 46.408C243.805 45.0427 246.579 44.36 249.736 44.36C252.851 44.36 255.56 45.064 257.864 46.472C260.168 47.8373 261.96 49.7573 263.24 52.232C264.52 54.664 265.16 57.5013 265.16 60.744V63.496H242.056C242.141 65.672 242.952 67.4427 244.488 68.808C246.024 70.1733 247.901 70.856 250.12 70.856C252.381 70.856 254.045 70.3653 255.112 69.384C256.179 68.4027 256.989 67.3147 257.544 66.12L264.136 69.576C263.539 70.6853 262.664 71.9013 261.512 73.224C260.403 74.504 258.909 75.6133 257.032 76.552C255.155 77.448 252.765 77.896 249.864 77.896ZM242.12 57.48H256.968C256.797 55.6453 256.051 54.1733 254.728 53.064C253.448 51.9547 251.763 51.4 249.672 51.4C247.496 51.4 245.768 51.9547 244.488 53.064C243.208 54.1733 242.419 55.6453 242.12 57.48ZM282.024 77.896C279.762 77.896 277.736 77.512 275.944 76.744C274.152 75.9333 272.722 74.7813 271.656 73.288C270.632 71.752 270.12 69.896 270.12 67.72C270.12 65.544 270.632 63.7307 271.656 62.28C272.722 60.7867 274.173 59.6773 276.008 58.952C277.885 58.184 280.018 57.8 282.408 57.8H291.112V56.008C291.112 54.5147 290.642 53.2987 289.704 52.36C288.765 51.3787 287.272 50.888 285.224 50.888C283.218 50.888 281.725 51.3573 280.744 52.296C279.762 53.192 279.122 54.3653 278.824 55.816L271.4 53.32C271.912 51.6987 272.722 50.2267 273.832 48.904C274.984 47.5387 276.498 46.4507 278.376 45.64C280.296 44.7867 282.621 44.36 285.352 44.36C289.533 44.36 292.84 45.4053 295.272 47.496C297.704 49.5867 298.92 52.616 298.92 56.584V68.424C298.92 69.704 299.517 70.344 300.712 70.344H303.272V77H297.896C296.317 77 295.016 76.616 293.992 75.848C292.968 75.08 292.456 74.056 292.456 72.776V72.712H291.24C291.069 73.224 290.685 73.9067 290.088 74.76C289.49 75.5707 288.552 76.296 287.272 76.936C285.992 77.576 284.242 77.896 282.024 77.896ZM283.432 71.368C285.693 71.368 287.528 70.7493 288.936 69.512C290.386 68.232 291.112 66.5467 291.112 64.456V63.816H282.984C281.49 63.816 280.317 64.136 279.464 64.776C278.61 65.416 278.184 66.312 278.184 67.464C278.184 68.616 278.632 69.5547 279.528 70.28C280.424 71.0053 281.725 71.368 283.432 71.368ZM323.284 77.896C320.212 77.896 317.418 77.256 314.9 75.976C312.426 74.696 310.463 72.84 309.012 70.408C307.562 67.976 306.836 65.032 306.836 61.576V60.68C306.836 57.224 307.562 54.28 309.012 51.848C310.463 49.416 312.426 47.56 314.9 46.28C317.418 45 320.212 44.36 323.284 44.36C326.314 44.36 328.916 44.8933 331.092 45.96C333.268 47.0267 335.018 48.4987 336.34 50.376C337.706 52.2107 338.602 54.3013 339.028 56.648L331.22 58.312C331.05 57.032 330.666 55.88 330.068 54.856C329.471 53.832 328.618 53.0213 327.508 52.424C326.442 51.8267 325.098 51.528 323.476 51.528C321.855 51.528 320.383 51.8907 319.06 52.616C317.78 53.2987 316.756 54.344 315.988 55.752C315.263 57.1173 314.9 58.8027 314.9 60.808V61.448C314.9 63.4533 315.263 65.16 315.988 66.568C316.756 67.9333 317.78 68.9787 319.06 69.704C320.383 70.3867 321.855 70.728 323.476 70.728C325.908 70.728 327.743 70.1093 328.98 68.872C330.26 67.592 331.071 65.928 331.412 63.88L339.22 65.736C338.666 67.9973 337.706 70.0667 336.34 71.944C335.018 73.7787 333.268 75.2293 331.092 76.296C328.916 77.3627 326.314 77.896 323.284 77.896ZM356.8 77C354.709 77 353.003 76.36 351.68 75.08C350.4 73.7573 349.76 72.008 349.76 69.832V51.912H341.824V45.256H349.76V35.4H357.824V45.256H366.528V51.912H357.824V68.424C357.824 69.704 358.421 70.344 359.616 70.344H365.76V77H356.8Z" fill="#AFA18F"/>
</svg>
