<svg width="59" height="18" viewBox="0 0 59 18" fill="none" xmlns="http://www.w3.org/2000/svg">
<path d="M2.576 17.836C1.936 17.836 1.392 17.628 0.944 17.212C0.512 16.78 0.296 16.228 0.296 15.556C0.296 14.884 0.512 14.34 0.944 13.924C1.392 13.492 1.936 13.276 2.576 13.276C3.232 13.276 3.776 13.492 4.208 13.924C4.64 14.34 4.856 14.884 4.856 15.556C4.856 16.228 4.64 16.78 4.208 17.212C3.776 17.628 3.232 17.836 2.576 17.836Z" fill="#00A699"/>
<path d="M7.65844 17.5V0.699999H10.6824V7.06H11.1144C11.2424 6.804 11.4424 6.548 11.7144 6.292C11.9864 6.036 12.3464 5.828 12.7944 5.668C13.2584 5.492 13.8424 5.404 14.5464 5.404C15.4744 5.404 16.2824 5.62 16.9704 6.052C17.6744 6.468 18.2184 7.052 18.6024 7.804C18.9864 8.54 19.1784 9.404 19.1784 10.396V17.5H16.1544V10.636C16.1544 9.74 15.9304 9.068 15.4824 8.62C15.0504 8.172 14.4264 7.948 13.6104 7.948C12.6824 7.948 11.9624 8.26 11.4504 8.884C10.9384 9.492 10.6824 10.348 10.6824 11.452V17.5H7.65844ZM25.9735 17.836C25.1255 17.836 24.3655 17.692 23.6935 17.404C23.0215 17.1 22.4855 16.668 22.0855 16.108C21.7015 15.532 21.5095 14.836 21.5095 14.02C21.5095 13.204 21.7015 12.524 22.0855 11.98C22.4855 11.42 23.0295 11.004 23.7175 10.732C24.4215 10.444 25.2215 10.3 26.1175 10.3H29.3815V9.628C29.3815 9.068 29.2055 8.612 28.8535 8.26C28.5015 7.892 27.9415 7.708 27.1735 7.708C26.4215 7.708 25.8615 7.884 25.4935 8.236C25.1255 8.572 24.8855 9.012 24.7735 9.556L21.9895 8.62C22.1815 8.012 22.4855 7.46 22.9015 6.964C23.3335 6.452 23.9015 6.044 24.6055 5.74C25.3255 5.42 26.1975 5.26 27.2215 5.26C28.7895 5.26 30.0295 5.652 30.9415 6.436C31.8535 7.22 32.3095 8.356 32.3095 9.844V14.284C32.3095 14.764 32.5335 15.004 32.9815 15.004H33.9415V17.5H31.9255C31.3335 17.5 30.8455 17.356 30.4615 17.068C30.0775 16.78 29.8855 16.396 29.8855 15.916V15.892H29.4295C29.3655 16.084 29.2215 16.34 28.9975 16.66C28.7735 16.964 28.4215 17.236 27.9415 17.476C27.4615 17.716 26.8055 17.836 25.9735 17.836ZM26.5015 15.388C27.3495 15.388 28.0375 15.156 28.5655 14.692C29.1095 14.212 29.3815 13.58 29.3815 12.796V12.556H26.3335C25.7735 12.556 25.3335 12.676 25.0135 12.916C24.6935 13.156 24.5335 13.492 24.5335 13.924C24.5335 14.356 24.7015 14.708 25.0375 14.98C25.3735 15.252 25.8615 15.388 26.5015 15.388ZM35.9825 17.5V0.699999H39.0065V17.5H35.9825ZM47.6115 17.836C46.4275 17.836 45.3795 17.588 44.4675 17.092C43.5715 16.58 42.8675 15.868 42.3555 14.956C41.8595 14.028 41.6115 12.94 41.6115 11.692V11.404C41.6115 10.156 41.8595 9.076 42.3555 8.164C42.8515 7.236 43.5475 6.524 44.4435 6.028C45.3395 5.516 46.3795 5.26 47.5635 5.26C48.7315 5.26 49.7475 5.524 50.6115 6.052C51.4755 6.564 52.1475 7.284 52.6275 8.212C53.1075 9.124 53.3475 10.188 53.3475 11.404V12.436H44.6835C44.7155 13.252 45.0195 13.916 45.5955 14.428C46.1715 14.94 46.8755 15.196 47.7075 15.196C48.5555 15.196 49.1795 15.012 49.5795 14.644C49.9795 14.276 50.2835 13.868 50.4915 13.42L52.9635 14.716C52.7395 15.132 52.4115 15.588 51.9795 16.084C51.5635 16.564 51.0035 16.98 50.2995 17.332C49.5955 17.668 48.6995 17.836 47.6115 17.836ZM44.7075 10.18H50.2755C50.2115 9.492 49.9315 8.94 49.4355 8.524C48.9555 8.108 48.3235 7.9 47.5395 7.9C46.7235 7.9 46.0755 8.108 45.5955 8.524C45.1155 8.94 44.8195 9.492 44.7075 10.18ZM55.8691 17.5V0.699999H58.8931V17.5H55.8691Z" fill="white"/>
</svg>
