<svg width="1430" height="1020" viewBox="0 0 1430 1020" fill="none" xmlns="http://www.w3.org/2000/svg">
<rect width="1430" height="1020" fill="#001B19"/>
<path d="M517.547 548V480.8H545.195C549.419 480.8 553.131 481.664 556.331 483.392C559.595 485.056 562.123 487.424 563.915 490.496C565.771 493.568 566.699 497.216 566.699 501.44V502.784C566.699 506.944 565.739 510.592 563.819 513.728C561.963 516.8 559.403 519.2 556.139 520.928C552.939 522.592 549.291 523.424 545.195 523.424H530.219V548H517.547ZM530.219 511.904H543.947C546.955 511.904 549.387 511.072 551.243 509.408C553.099 507.744 554.027 505.472 554.027 502.592V501.632C554.027 498.752 553.099 496.48 551.243 494.816C549.387 493.152 546.955 492.32 543.947 492.32H530.219V511.904ZM575.792 548V500.384H587.696V505.76H589.424C590.128 503.84 591.28 502.432 592.88 501.536C594.544 500.64 596.464 500.192 598.64 500.192H604.4V510.944H598.448C595.376 510.944 592.848 511.776 590.864 513.44C588.88 515.04 587.888 517.536 587.888 520.928V548H575.792ZM634.653 549.344C629.917 549.344 625.661 548.384 621.885 546.464C618.109 544.544 615.133 541.76 612.957 538.112C610.781 534.464 609.693 530.08 609.693 524.96V523.424C609.693 518.304 610.781 513.92 612.957 510.272C615.133 506.624 618.109 503.84 621.885 501.92C625.661 500 629.917 499.04 634.653 499.04C639.389 499.04 643.645 500 647.421 501.92C651.197 503.84 654.173 506.624 656.349 510.272C658.525 513.92 659.614 518.304 659.614 523.424V524.96C659.614 530.08 658.525 534.464 656.349 538.112C654.173 541.76 651.197 544.544 647.421 546.464C643.645 548.384 639.389 549.344 634.653 549.344ZM634.653 538.592C638.365 538.592 641.437 537.408 643.869 535.04C646.301 532.608 647.517 529.152 647.517 524.672V523.712C647.517 519.232 646.301 515.808 643.869 513.44C641.501 511.008 638.429 509.792 634.653 509.792C630.941 509.792 627.869 511.008 625.437 513.44C623.005 515.808 621.789 519.232 621.789 523.712V524.672C621.789 529.152 623.005 532.608 625.437 535.04C627.869 537.408 630.941 538.592 634.653 538.592ZM661.777 567.2V556.832H668.113C669.905 556.832 670.801 555.872 670.801 553.952V500.384H682.897V556.448C682.897 559.712 681.937 562.304 680.017 564.224C678.097 566.208 675.537 567.2 672.337 567.2H661.777ZM676.849 494.816C674.673 494.816 672.817 494.112 671.281 492.704C669.809 491.296 669.073 489.44 669.073 487.136C669.073 484.832 669.809 482.976 671.281 481.568C672.817 480.16 674.673 479.456 676.849 479.456C679.089 479.456 680.945 480.16 682.417 481.568C683.889 482.976 684.625 484.832 684.625 487.136C684.625 489.44 683.889 491.296 682.417 492.704C680.945 494.112 679.089 494.816 676.849 494.816ZM717.822 549.344C713.086 549.344 708.894 548.352 705.246 546.368C701.662 544.32 698.846 541.472 696.798 537.824C694.814 534.112 693.822 529.76 693.822 524.768V523.616C693.822 518.624 694.814 514.304 696.798 510.656C698.782 506.944 701.566 504.096 705.15 502.112C708.734 500.064 712.894 499.04 717.63 499.04C722.302 499.04 726.366 500.096 729.822 502.208C733.278 504.256 735.966 507.136 737.886 510.848C739.806 514.496 740.766 518.752 740.766 523.616V527.744H706.11C706.238 531.008 707.454 533.664 709.758 535.712C712.062 537.76 714.878 538.784 718.206 538.784C721.598 538.784 724.094 538.048 725.694 536.576C727.294 535.104 728.51 533.472 729.342 531.68L739.23 536.864C738.334 538.528 737.022 540.352 735.294 542.336C733.63 544.256 731.39 545.92 728.574 547.328C725.758 548.672 722.174 549.344 717.822 549.344ZM706.206 518.72H728.478C728.222 515.968 727.102 513.76 725.118 512.096C723.198 510.432 720.67 509.6 717.534 509.6C714.27 509.6 711.678 510.432 709.758 512.096C707.838 513.76 706.654 515.968 706.206 518.72ZM773.73 549.344C769.122 549.344 764.93 548.384 761.154 546.464C757.442 544.544 754.498 541.76 752.322 538.112C750.146 534.464 749.058 530.048 749.058 524.864V523.52C749.058 518.336 750.146 513.92 752.322 510.272C754.498 506.624 757.442 503.84 761.154 501.92C764.93 500 769.122 499.04 773.73 499.04C778.274 499.04 782.178 499.84 785.442 501.44C788.706 503.04 791.33 505.248 793.314 508.064C795.362 510.816 796.706 513.952 797.346 517.472L785.634 519.968C785.378 518.048 784.802 516.32 783.906 514.784C783.01 513.248 781.73 512.032 780.066 511.136C778.466 510.24 776.45 509.792 774.018 509.792C771.586 509.792 769.378 510.336 767.394 511.424C765.474 512.448 763.938 514.016 762.786 516.128C761.698 518.176 761.154 520.704 761.154 523.712V524.672C761.154 527.68 761.698 530.24 762.786 532.352C763.938 534.4 765.474 535.968 767.394 537.056C769.378 538.08 771.586 538.592 774.018 538.592C777.666 538.592 780.418 537.664 782.274 535.808C784.194 533.888 785.41 531.392 785.922 528.32L797.634 531.104C796.802 534.496 795.362 537.6 793.314 540.416C791.33 543.168 788.706 545.344 785.442 546.944C782.178 548.544 778.274 549.344 773.73 549.344ZM824.089 548C820.953 548 818.393 547.04 816.409 545.12C814.489 543.136 813.529 540.512 813.529 537.248V510.368H801.625V500.384H813.529V485.6H825.625V500.384H838.681V510.368H825.625V535.136C825.625 537.056 826.521 538.016 828.313 538.016H837.529V548H824.089ZM869.236 549.344C863.028 549.344 857.94 548 853.972 545.312C850.004 542.624 847.604 538.784 846.772 533.792L857.908 530.912C858.356 533.152 859.092 534.912 860.116 536.192C861.204 537.472 862.516 538.4 864.052 538.976C865.652 539.488 867.38 539.744 869.236 539.744C872.052 539.744 874.132 539.264 875.476 538.304C876.82 537.28 877.492 536.032 877.492 534.56C877.492 533.088 876.852 531.968 875.572 531.2C874.292 530.368 872.244 529.696 869.428 529.184L866.74 528.704C863.412 528.064 860.372 527.2 857.62 526.112C854.868 524.96 852.66 523.392 850.996 521.408C849.332 519.424 848.5 516.864 848.5 513.728C848.5 508.992 850.228 505.376 853.684 502.88C857.14 500.32 861.684 499.04 867.316 499.04C872.628 499.04 877.044 500.224 880.564 502.592C884.084 504.96 886.388 508.064 887.476 511.904L876.244 515.36C875.732 512.928 874.676 511.2 873.076 510.176C871.54 509.152 869.62 508.64 867.316 508.64C865.012 508.64 863.252 509.056 862.036 509.888C860.82 510.656 860.212 511.744 860.212 513.152C860.212 514.688 860.852 515.84 862.132 516.608C863.412 517.312 865.14 517.856 867.316 518.24L870.004 518.72C873.588 519.36 876.82 520.224 879.7 521.312C882.644 522.336 884.948 523.84 886.612 525.824C888.34 527.744 889.204 530.368 889.204 533.696C889.204 538.688 887.38 542.56 883.732 545.312C880.148 548 875.316 549.344 869.236 549.344Z" fill="#AFA18F"/>
<path d="M905.874 534.56C908.37 534.56 910.354 535.232 911.826 536.576C913.298 537.856 914.034 539.648 914.034 541.952C914.034 544.256 913.298 546.08 911.826 547.424C910.354 548.704 908.37 549.344 905.874 549.344C903.378 549.344 901.394 548.704 899.922 547.424C898.45 546.08 897.714 544.256 897.714 541.952C897.714 539.648 898.45 537.856 899.922 536.576C901.394 535.232 903.378 534.56 905.874 534.56Z" fill="#00A699"/>
</svg>
