<svg width="214" height="214" viewBox="0 0 214 214" fill="none" xmlns="http://www.w3.org/2000/svg">
<g clip-path="url(#clip0_202_1238)">
<g clip-path="url(#clip1_202_1238)">
<path d="M68.2668 113.5V100.511H70.2265V111.813H76.112V113.5H68.2668ZM82.3939 113.697C81.4341 113.697 80.6075 113.492 79.9141 113.081C79.2249 112.667 78.6922 112.086 78.3159 111.337C77.9438 110.585 77.7578 109.703 77.7578 108.693C77.7578 107.695 77.9438 106.815 78.3159 106.054C78.6922 105.293 79.2165 104.699 79.8887 104.272C80.5652 103.845 81.3559 103.632 82.2607 103.632C82.8103 103.632 83.3431 103.723 83.8589 103.904C84.3747 104.086 84.8377 104.372 85.2478 104.761C85.6579 105.15 85.9814 105.655 86.2182 106.276C86.4549 106.894 86.5733 107.644 86.5733 108.528V109.2H78.8296V107.779H84.7151C84.7151 107.281 84.6136 106.839 84.4107 106.454C84.2077 106.065 83.9223 105.758 83.5545 105.534C83.1909 105.31 82.7638 105.198 82.2734 105.198C81.7406 105.198 81.2755 105.329 80.8781 105.591C80.4849 105.849 80.1805 106.188 79.9648 106.606C79.7534 107.02 79.6477 107.471 79.6477 107.957V109.067C79.6477 109.718 79.7619 110.272 79.9902 110.728C80.2227 111.185 80.5462 111.534 80.9605 111.775C81.3749 112.012 81.859 112.13 82.4129 112.13C82.7723 112.13 83.1 112.079 83.3959 111.978C83.6919 111.872 83.9477 111.716 84.1633 111.509C84.3789 111.301 84.5438 111.046 84.658 110.741L86.4528 111.065C86.3091 111.593 86.0511 112.056 85.6791 112.454C85.3112 112.847 84.8483 113.153 84.2902 113.373C83.7363 113.589 83.1042 113.697 82.3939 113.697ZM93.2246 103.759V105.281H87.9036V103.759H93.2246ZM89.3305 101.425H91.2268V110.64C91.2268 111.008 91.2818 111.284 91.3917 111.471C91.5017 111.652 91.6433 111.777 91.8166 111.845C91.9942 111.908 92.1866 111.94 92.3938 111.94C92.546 111.94 92.6792 111.929 92.7933 111.908C92.9075 111.887 92.9963 111.87 93.0597 111.857L93.4022 113.424C93.2922 113.466 93.1358 113.508 92.9329 113.551C92.7299 113.597 92.4762 113.623 92.1718 113.627C91.6729 113.635 91.2078 113.547 90.7765 113.36C90.3453 113.174 89.9965 112.887 89.7301 112.498C89.4637 112.109 89.3305 111.621 89.3305 111.033V101.425ZM96.7619 100.511V105.135H95.1891V100.511H96.7619ZM106.511 106.137L104.793 106.441C104.721 106.221 104.607 106.012 104.45 105.813C104.298 105.615 104.091 105.452 103.829 105.325C103.566 105.198 103.239 105.135 102.846 105.135C102.309 105.135 101.86 105.255 101.501 105.496C101.142 105.733 100.962 106.04 100.962 106.416C100.962 106.741 101.082 107.004 101.323 107.202C101.564 107.401 101.953 107.564 102.49 107.691L104.038 108.046C104.934 108.253 105.602 108.572 106.042 109.003C106.482 109.435 106.702 109.995 106.702 110.684C106.702 111.268 106.532 111.788 106.194 112.244C105.86 112.697 105.393 113.052 104.793 113.31C104.196 113.568 103.505 113.697 102.719 113.697C101.628 113.697 100.738 113.464 100.049 112.999C99.3595 112.53 98.9367 111.864 98.7803 111.001L100.613 110.722C100.727 111.2 100.962 111.561 101.317 111.807C101.672 112.048 102.135 112.168 102.706 112.168C103.328 112.168 103.824 112.039 104.196 111.781C104.569 111.519 104.755 111.2 104.755 110.824C104.755 110.519 104.64 110.263 104.412 110.056C104.188 109.849 103.843 109.693 103.378 109.587L101.729 109.225C100.82 109.018 100.148 108.688 99.7126 108.236C99.2813 107.784 99.0657 107.211 99.0657 106.517C99.0657 105.942 99.2263 105.439 99.5477 105.008C99.869 104.577 100.313 104.241 100.88 104C101.446 103.754 102.095 103.632 102.827 103.632C103.879 103.632 104.708 103.86 105.313 104.317C105.917 104.769 106.317 105.376 106.511 106.137ZM113.025 102.198V100.511H123.077V102.198H119.024V113.5H117.071V102.198H113.025ZM126.655 113.716C126.038 113.716 125.48 113.601 124.981 113.373C124.482 113.141 124.087 112.804 123.795 112.365C123.508 111.925 123.364 111.386 123.364 110.748C123.364 110.198 123.47 109.745 123.681 109.39C123.892 109.035 124.178 108.754 124.537 108.547C124.897 108.34 125.298 108.183 125.742 108.077C126.186 107.972 126.639 107.891 127.099 107.836C127.683 107.769 128.156 107.714 128.52 107.672C128.884 107.625 129.148 107.551 129.313 107.45C129.478 107.348 129.56 107.183 129.56 106.955V106.911C129.56 106.357 129.404 105.928 129.091 105.623C128.782 105.319 128.321 105.166 127.708 105.166C127.07 105.166 126.567 105.308 126.199 105.591C125.835 105.87 125.584 106.181 125.444 106.524L123.662 106.118C123.873 105.526 124.182 105.048 124.588 104.684C124.998 104.317 125.469 104.05 126.002 103.885C126.535 103.716 127.095 103.632 127.683 103.632C128.072 103.632 128.484 103.678 128.92 103.771C129.359 103.86 129.769 104.025 130.15 104.266C130.535 104.507 130.85 104.851 131.095 105.3C131.34 105.744 131.463 106.321 131.463 107.031V113.5H129.611V112.168H129.535C129.412 112.413 129.228 112.654 128.983 112.891C128.738 113.128 128.423 113.325 128.038 113.481C127.653 113.637 127.192 113.716 126.655 113.716ZM127.068 112.194C127.592 112.194 128.04 112.09 128.412 111.883C128.788 111.676 129.074 111.405 129.268 111.071C129.467 110.733 129.566 110.371 129.566 109.986V108.731C129.499 108.798 129.368 108.862 129.173 108.921C128.983 108.976 128.765 109.025 128.52 109.067C128.275 109.105 128.036 109.141 127.803 109.175C127.571 109.204 127.376 109.23 127.22 109.251C126.852 109.297 126.516 109.376 126.211 109.485C125.911 109.595 125.67 109.754 125.488 109.961C125.311 110.164 125.222 110.435 125.222 110.773C125.222 111.242 125.395 111.597 125.742 111.838C126.089 112.075 126.531 112.194 127.068 112.194ZM135.885 100.511V113.5H133.988V100.511H135.885ZM140.18 110.196L140.167 107.881H140.497L144.378 103.759H146.649L142.222 108.452H141.924L140.18 110.196ZM138.436 113.5V100.511H140.332V113.5H138.436ZM144.588 113.5L141.1 108.87L142.406 107.545L146.915 113.5H144.588Z" fill="black"/>
<g clip-path="url(#clip2_202_1238)">
<path d="M-33.2681 202.89L23.8899 103.89L81.0469 202.89H-33.2681Z" fill="black" stroke="white" stroke-width="2"/>
</g>
<g clip-path="url(#clip3_202_1238)">
<path d="M124.005 275.285L66.8476 176.284L181.163 176.285L124.005 275.285Z" fill="black" stroke="white" stroke-width="2"/>
</g>
<g clip-path="url(#clip4_202_1238)">
<path d="M262.273 175.895L147.958 175.895L205.116 76.8953L262.273 175.895Z" fill="black" stroke="white" stroke-width="2"/>
</g>
<g clip-path="url(#clip5_202_1238)">
<path d="M245.268 6.10986L188.11 105.11L130.953 6.10986H245.268Z" fill="black" stroke="white" stroke-width="2"/>
</g>
<g clip-path="url(#clip6_202_1238)">
<path d="M90.9949 -61.2949L148.152 37.7054L33.8374 37.7047L90.9949 -61.2949Z" fill="black" stroke="white" stroke-width="2"/>
</g>
<g clip-path="url(#clip7_202_1238)">
<path d="M-52.2731 38.0947L62.0424 38.095L4.88439 137.094L-52.2731 38.0947Z" fill="black" stroke="white" stroke-width="2"/>
</g>
<rect x="8.5" y="8.5" width="197" height="197" rx="98.5" stroke="#FAF5EA" stroke-width="3"/>
</g>
<rect x="0.5" y="0.5" width="213" height="213" rx="106.5" stroke="white" stroke-opacity="0.5"/>
</g>
<defs>
<clipPath id="clip0_202_1238">
<rect width="214" height="214" rx="107" fill="white"/>
</clipPath>
<clipPath id="clip1_202_1238">
<rect x="7" y="7" width="200" height="200" rx="100" fill="white"/>
</clipPath>
<clipPath id="clip2_202_1238">
<rect width="118" height="103" fill="white" transform="translate(-35 101)"/>
</clipPath>
<clipPath id="clip3_202_1238">
<rect width="118" height="103" fill="white" transform="translate(34.8999 225.84) rotate(-60)"/>
</clipPath>
<clipPath id="clip4_202_1238">
<rect width="118" height="103" fill="white" transform="translate(174.9 228.34) rotate(-120)"/>
</clipPath>
<clipPath id="clip5_202_1238">
<rect width="118" height="103" fill="white" transform="matrix(-1 0 0 -1 247 108)"/>
</clipPath>
<clipPath id="clip6_202_1238">
<rect width="118" height="103" fill="white" transform="translate(180.1 -11.8501) rotate(120)"/>
</clipPath>
<clipPath id="clip7_202_1238">
<rect width="118" height="103" fill="white" transform="translate(35.1001 -14.3501) rotate(60)"/>
</clipPath>
</defs>
</svg>
