<svg width="27" height="26" viewBox="0 0 27 26" fill="none" xmlns="http://www.w3.org/2000/svg">
<path d="M13.5049 2.4375C11.4158 2.4375 9.37367 3.05698 7.63668 4.2176C5.89968 5.37822 4.54586 7.02786 3.74641 8.95791C2.94696 10.8879 2.73779 13.0117 3.14534 15.0606C3.5529 17.1096 4.55888 18.9916 6.03607 20.4688C7.51326 21.946 9.39532 22.952 11.4442 23.3595C13.4932 23.7671 15.6169 23.5579 17.547 22.7585C19.477 21.959 21.1267 20.6052 22.2873 18.8682C23.4479 17.1312 24.0674 15.0891 24.0674 13C24.0644 10.1996 22.9506 7.51466 20.9704 5.53445C18.9902 3.55424 16.3053 2.44046 13.5049 2.4375ZM14.3174 21.8999V15.4375H16.7549C16.9704 15.4375 17.177 15.3519 17.3294 15.1995C17.4818 15.0472 17.5674 14.8405 17.5674 14.625C17.5674 14.4095 17.4818 14.2028 17.3294 14.0505C17.177 13.8981 16.9704 13.8125 16.7549 13.8125H14.3174V11.375C14.3174 10.944 14.4886 10.5307 14.7933 10.226C15.0981 9.9212 15.5114 9.75 15.9424 9.75H17.5674C17.7829 9.75 17.9895 9.6644 18.1419 9.51202C18.2943 9.35965 18.3799 9.15299 18.3799 8.9375C18.3799 8.72201 18.2943 8.51535 18.1419 8.36298C17.9895 8.2106 17.7829 8.125 17.5674 8.125H15.9424C15.0804 8.125 14.2538 8.46741 13.6443 9.0769C13.0348 9.6864 12.6924 10.513 12.6924 11.375V13.8125H10.2549C10.0394 13.8125 9.83274 13.8981 9.68036 14.0505C9.52799 14.2028 9.44239 14.4095 9.44239 14.625C9.44239 14.8405 9.52799 15.0472 9.68036 15.1995C9.83274 15.3519 10.0394 15.4375 10.2549 15.4375H12.6924V21.8999C10.4019 21.6908 8.28027 20.6068 6.76869 18.8733C5.25711 17.1398 4.47199 14.8903 4.57664 12.5928C4.6813 10.2952 5.66766 8.12637 7.33057 6.53748C8.99348 4.94859 11.2049 4.06193 13.5049 4.06193C15.8049 4.06193 18.0163 4.94859 19.6792 6.53748C21.3421 8.12637 22.3285 10.2952 22.4331 12.5928C22.5378 14.8903 21.7527 17.1398 20.2411 18.8733C18.7295 20.6068 16.6078 21.6908 14.3174 21.8999Z" fill="#141414"/>
</svg>
