<svg width="27" height="26" viewBox="0 0 27 26" fill="none" xmlns="http://www.w3.org/2000/svg">
<path d="M22.4424 2.4375H4.56738C4.13641 2.4375 3.72308 2.6087 3.41833 2.91345C3.11359 3.2182 2.94238 3.63152 2.94238 4.0625V21.9375C2.94238 22.3685 3.11359 22.7818 3.41833 23.0865C3.72308 23.3913 4.13641 23.5625 4.56738 23.5625H22.4424C22.8734 23.5625 23.2867 23.3913 23.5914 23.0865C23.8962 22.7818 24.0674 22.3685 24.0674 21.9375V4.0625C24.0674 3.63152 23.8962 3.2182 23.5914 2.91345C23.2867 2.6087 22.8734 2.4375 22.4424 2.4375ZM22.4424 21.9375H4.56738V4.0625H22.4424V21.9375ZM10.2549 11.375V17.875C10.2549 18.0905 10.1693 18.2972 10.0169 18.4495C9.86453 18.6019 9.65787 18.6875 9.44238 18.6875C9.22689 18.6875 9.02023 18.6019 8.86786 18.4495C8.71549 18.2972 8.62988 18.0905 8.62988 17.875V11.375C8.62988 11.1595 8.71549 10.9528 8.86786 10.8005C9.02023 10.6481 9.22689 10.5625 9.44238 10.5625C9.65787 10.5625 9.86453 10.6481 10.0169 10.8005C10.1693 10.9528 10.2549 11.1595 10.2549 11.375ZM19.1924 14.2188V17.875C19.1924 18.0905 19.1068 18.2972 18.9544 18.4495C18.802 18.6019 18.5954 18.6875 18.3799 18.6875C18.1644 18.6875 17.9577 18.6019 17.8054 18.4495C17.653 18.2972 17.5674 18.0905 17.5674 17.875V14.2188C17.5674 13.68 17.3534 13.1634 16.9724 12.7824C16.5915 12.4015 16.0749 12.1875 15.5361 12.1875C14.9974 12.1875 14.4808 12.4015 14.0998 12.7824C13.7189 13.1634 13.5049 13.68 13.5049 14.2188V17.875C13.5049 18.0905 13.4193 18.2972 13.2669 18.4495C13.1145 18.6019 12.9079 18.6875 12.6924 18.6875C12.4769 18.6875 12.2702 18.6019 12.1179 18.4495C11.9655 18.2972 11.8799 18.0905 11.8799 17.875V11.375C11.8809 11.176 11.9549 10.9843 12.0879 10.8362C12.2209 10.6881 12.4036 10.594 12.6014 10.5717C12.7991 10.5494 12.9982 10.6005 13.1608 10.7152C13.3234 10.83 13.4383 11.0004 13.4836 11.1942C14.0332 10.8214 14.674 10.6053 15.3372 10.5691C16.0004 10.533 16.6609 10.6782 17.2478 10.9891C17.8347 11.3001 18.3258 11.765 18.6684 12.334C19.011 12.903 19.1922 13.5546 19.1924 14.2188ZM10.6611 8.53125C10.6611 8.7723 10.5897 9.00793 10.4557 9.20835C10.3218 9.40877 10.1315 9.56498 9.90878 9.65723C9.68608 9.74947 9.44103 9.77361 9.20462 9.72658C8.9682 9.67956 8.75104 9.56348 8.5806 9.39304C8.41015 9.22259 8.29408 9.00543 8.24705 8.76902C8.20003 8.5326 8.22416 8.28755 8.3164 8.06485C8.40865 7.84216 8.56486 7.65181 8.76528 7.5179C8.9657 7.38398 9.20134 7.3125 9.44238 7.3125C9.76562 7.3125 10.0756 7.4409 10.3042 7.66946C10.5327 7.89802 10.6611 8.20802 10.6611 8.53125Z" fill="#141414"/>
</svg>
