<svg width="27" height="26" viewBox="0 0 27 26" fill="none" xmlns="http://www.w3.org/2000/svg">
<path d="M13.5049 8.125C12.5407 8.125 11.5982 8.41091 10.7965 8.94659C9.99479 9.48226 9.36995 10.2436 9.00097 11.1344C8.63199 12.0252 8.53545 13.0054 8.72356 13.9511C8.91166 14.8967 9.37596 15.7654 10.0577 16.4471C10.7395 17.1289 11.6082 17.5932 12.5538 17.7813C13.4995 17.9694 14.4797 17.8729 15.3705 17.5039C16.2613 17.1349 17.0226 16.5101 17.5583 15.7084C18.094 14.9067 18.3799 13.9642 18.3799 13C18.3785 11.7075 17.8645 10.4683 16.9505 9.55434C16.0366 8.64039 14.7974 8.12634 13.5049 8.125ZM13.5049 16.25C12.8621 16.25 12.2337 16.0594 11.6993 15.7023C11.1648 15.3452 10.7483 14.8376 10.5023 14.2437C10.2563 13.6499 10.1919 12.9964 10.3173 12.366C10.4427 11.7355 10.7523 11.1564 11.2068 10.7019C11.6613 10.2474 12.2404 9.93785 12.8708 9.81245C13.5013 9.68705 14.1547 9.75141 14.7486 9.99739C15.3425 10.2434 15.85 10.6599 16.2072 11.1944C16.5643 11.7289 16.7549 12.3572 16.7549 13C16.7549 13.862 16.4125 14.6886 15.803 15.2981C15.1935 15.9076 14.3668 16.25 13.5049 16.25ZM18.3799 2.4375H8.62988C7.12196 2.43911 5.67626 3.03885 4.60999 4.10511C3.54373 5.17138 2.944 6.61708 2.94238 8.125V17.875C2.944 19.3829 3.54373 20.8286 4.60999 21.8949C5.67626 22.9612 7.12196 23.5609 8.62988 23.5625H18.3799C19.8878 23.5609 21.3335 22.9612 22.3998 21.8949C23.466 20.8286 24.0658 19.3829 24.0674 17.875V8.125C24.0658 6.61708 23.466 5.17138 22.3998 4.10511C21.3335 3.03885 19.8878 2.43911 18.3799 2.4375ZM22.4424 17.875C22.4424 18.9524 22.0144 19.9858 21.2525 20.7476C20.4906 21.5095 19.4573 21.9375 18.3799 21.9375H8.62988C7.55244 21.9375 6.51913 21.5095 5.75726 20.7476C4.99539 19.9858 4.56738 18.9524 4.56738 17.875V8.125C4.56738 7.04756 4.99539 6.01425 5.75726 5.25238C6.51913 4.49051 7.55244 4.0625 8.62988 4.0625H18.3799C19.4573 4.0625 20.4906 4.49051 21.2525 5.25238C22.0144 6.01425 22.4424 7.04756 22.4424 8.125V17.875ZM20.0049 7.71875C20.0049 7.9598 19.9334 8.19543 19.7995 8.39585C19.6656 8.59627 19.4752 8.75248 19.2525 8.84473C19.0298 8.93697 18.7848 8.96111 18.5484 8.91408C18.312 8.86706 18.0948 8.75098 17.9243 8.58054C17.7539 8.41009 17.6378 8.19293 17.5908 7.95652C17.5438 7.7201 17.5679 7.47505 17.6602 7.25235C17.7524 7.02966 17.9086 6.83931 18.109 6.7054C18.3095 6.57148 18.5451 6.5 18.7861 6.5C19.1094 6.5 19.4194 6.6284 19.6479 6.85696C19.8765 7.08552 20.0049 7.39552 20.0049 7.71875Z" fill="#141414"/>
</svg>
