<svg width="27" height="26" viewBox="0 0 27 26" fill="none" xmlns="http://www.w3.org/2000/svg">
<path d="M21.3922 19.7376C21.4677 19.8131 21.5276 19.9027 21.5684 20.0014C21.6093 20.1 21.6303 20.2057 21.6303 20.3125C21.6303 20.4192 21.6093 20.5249 21.5684 20.6236C21.5276 20.7222 21.4677 20.8118 21.3922 20.8873C21.3167 20.9628 21.2271 21.0227 21.1284 21.0635C21.0298 21.1044 20.9241 21.1254 20.8173 21.1254C20.7106 21.1254 20.6049 21.1044 20.5062 21.0635C20.4076 21.0227 20.318 20.9628 20.2425 20.8873L13.5048 14.1486L6.76719 20.8873C6.61473 21.0398 6.40795 21.1254 6.19235 21.1254C5.97674 21.1254 5.76996 21.0398 5.6175 20.8873C5.46504 20.7348 5.37939 20.5281 5.37939 20.3125C5.37939 20.0969 5.46504 19.8901 5.6175 19.7376L12.3562 13L5.6175 6.26231C5.46504 6.10985 5.37939 5.90307 5.37939 5.68746C5.37939 5.47186 5.46504 5.26508 5.6175 5.11262C5.76996 4.96016 5.97674 4.87451 6.19235 4.87451C6.40795 4.87451 6.61473 4.96016 6.76719 5.11262L13.5048 11.8513L20.2425 5.11262C20.395 4.96016 20.6017 4.87451 20.8173 4.87451C21.033 4.87451 21.2397 4.96016 21.3922 5.11262C21.5446 5.26508 21.6303 5.47186 21.6303 5.68746C21.6303 5.90307 21.5446 6.10985 21.3922 6.26231L14.6535 13L21.3922 19.7376Z" fill="#141414"/>
</svg>
