<svg width="594" height="355" viewBox="0 0 594 355" fill="none" xmlns="http://www.w3.org/2000/svg">
<rect width="594" height="355" fill="black"/>
<path d="M220.296 196.52C217.731 196.52 215.426 195.948 213.38 194.804C211.335 193.66 209.723 192.1 208.544 190.124C207.366 188.148 206.776 185.929 206.776 183.468C206.776 180.972 207.366 178.736 208.544 176.76C209.723 174.784 211.335 173.224 213.38 172.08C215.46 170.901 217.766 170.312 220.296 170.312C222.272 170.312 224.092 170.676 225.756 171.404C227.42 172.132 228.859 173.172 230.072 174.524L225.704 178.944C225.046 178.216 224.248 177.661 223.312 177.28C222.411 176.899 221.406 176.708 220.296 176.708C219.048 176.708 217.922 177.003 216.916 177.592C215.946 178.147 215.166 178.927 214.576 179.932C214.022 180.903 213.744 182.064 213.744 183.416C213.744 184.733 214.022 185.912 214.576 186.952C215.166 187.957 215.946 188.755 216.916 189.344C217.922 189.899 219.048 190.176 220.296 190.176C221.44 190.176 222.463 189.985 223.364 189.604C224.3 189.188 225.098 188.599 225.756 187.836L230.176 192.256C228.894 193.643 227.42 194.7 225.756 195.428C224.092 196.156 222.272 196.52 220.296 196.52ZM246.32 196.52C243.789 196.52 241.501 195.948 239.456 194.804C237.445 193.625 235.833 192.048 234.62 190.072C233.441 188.061 232.852 185.825 232.852 183.364C232.852 180.903 233.441 178.701 234.62 176.76C235.798 174.784 237.41 173.224 239.456 172.08C241.501 170.901 243.772 170.312 246.268 170.312C248.833 170.312 251.121 170.901 253.132 172.08C255.177 173.224 256.789 174.784 257.968 176.76C259.146 178.701 259.736 180.903 259.736 183.364C259.736 185.825 259.146 188.061 257.968 190.072C256.789 192.048 255.177 193.625 253.132 194.804C251.121 195.948 248.85 196.52 246.32 196.52ZM246.268 190.176C247.55 190.176 248.677 189.899 249.648 189.344C250.653 188.755 251.416 187.957 251.936 186.952C252.49 185.912 252.768 184.733 252.768 183.416C252.768 182.099 252.49 180.937 251.936 179.932C251.381 178.927 250.618 178.147 249.648 177.592C248.677 177.003 247.55 176.708 246.268 176.708C245.02 176.708 243.91 177.003 242.94 177.592C241.969 178.147 241.206 178.927 240.652 179.932C240.097 180.937 239.82 182.099 239.82 183.416C239.82 184.733 240.097 185.912 240.652 186.952C241.206 187.957 241.969 188.755 242.94 189.344C243.91 189.899 245.02 190.176 246.268 190.176ZM282.061 196V181.596C282.061 180.105 281.593 178.892 280.657 177.956C279.721 177.02 278.508 176.552 277.017 176.552C276.046 176.552 275.18 176.76 274.417 177.176C273.654 177.592 273.048 178.181 272.597 178.944C272.181 179.707 271.973 180.591 271.973 181.596L269.321 180.244C269.321 178.268 269.737 176.552 270.569 175.096C271.436 173.605 272.614 172.444 274.105 171.612C275.63 170.78 277.346 170.364 279.253 170.364C281.09 170.364 282.737 170.832 284.193 171.768C285.649 172.669 286.793 173.865 287.625 175.356C288.457 176.812 288.873 178.389 288.873 180.088V196H282.061ZM265.161 196V170.884H271.973V196H265.161ZM304.032 196.572C302.611 196.572 301.207 196.381 299.82 196C298.468 195.619 297.22 195.099 296.076 194.44C294.932 193.747 293.944 192.915 293.112 191.944L297.168 187.836C298.035 188.807 299.04 189.535 300.184 190.02C301.328 190.505 302.594 190.748 303.98 190.748C305.09 190.748 305.922 190.592 306.476 190.28C307.066 189.968 307.36 189.5 307.36 188.876C307.36 188.183 307.048 187.645 306.424 187.264C305.835 186.883 305.055 186.571 304.084 186.328C303.114 186.051 302.091 185.756 301.016 185.444C299.976 185.097 298.971 184.664 298 184.144C297.03 183.589 296.232 182.844 295.608 181.908C295.019 180.937 294.724 179.689 294.724 178.164C294.724 176.569 295.106 175.183 295.868 174.004C296.666 172.825 297.792 171.907 299.248 171.248C300.704 170.589 302.42 170.26 304.396 170.26C306.476 170.26 308.348 170.624 310.012 171.352C311.711 172.08 313.115 173.172 314.224 174.628L310.116 178.736C309.354 177.8 308.487 177.124 307.516 176.708C306.58 176.292 305.558 176.084 304.448 176.084C303.443 176.084 302.663 176.24 302.108 176.552C301.588 176.864 301.328 177.297 301.328 177.852C301.328 178.476 301.623 178.961 302.212 179.308C302.836 179.655 303.634 179.967 304.604 180.244C305.575 180.487 306.58 180.781 307.62 181.128C308.695 181.44 309.7 181.891 310.636 182.48C311.607 183.069 312.387 183.849 312.976 184.82C313.6 185.791 313.912 187.039 313.912 188.564C313.912 191.025 313.028 192.984 311.26 194.44C309.492 195.861 307.083 196.572 304.032 196.572ZM319.546 196V170.884H326.41V196H319.546ZM322.978 166.828C321.868 166.828 320.95 166.464 320.222 165.736C319.494 164.973 319.13 164.037 319.13 162.928C319.13 161.853 319.494 160.935 320.222 160.172C320.95 159.409 321.868 159.028 322.978 159.028C324.122 159.028 325.04 159.409 325.734 160.172C326.462 160.935 326.826 161.853 326.826 162.928C326.826 164.037 326.462 164.973 325.734 165.736C325.04 166.464 324.122 166.828 322.978 166.828ZM333.484 196V158.404H340.296V196H333.484ZM359.176 196.52C356.645 196.52 354.357 195.948 352.312 194.804C350.301 193.625 348.689 192.048 347.476 190.072C346.297 188.061 345.708 185.825 345.708 183.364C345.708 180.903 346.297 178.701 347.476 176.76C348.655 174.784 350.267 173.224 352.312 172.08C354.357 170.901 356.628 170.312 359.124 170.312C361.689 170.312 363.977 170.901 365.988 172.08C368.033 173.224 369.645 174.784 370.824 176.76C372.003 178.701 372.592 180.903 372.592 183.364C372.592 185.825 372.003 188.061 370.824 190.072C369.645 192.048 368.033 193.625 365.988 194.804C363.977 195.948 361.707 196.52 359.176 196.52ZM359.124 190.176C360.407 190.176 361.533 189.899 362.504 189.344C363.509 188.755 364.272 187.957 364.792 186.952C365.347 185.912 365.624 184.733 365.624 183.416C365.624 182.099 365.347 180.937 364.792 179.932C364.237 178.927 363.475 178.147 362.504 177.592C361.533 177.003 360.407 176.708 359.124 176.708C357.876 176.708 356.767 177.003 355.796 177.592C354.825 178.147 354.063 178.927 353.508 179.932C352.953 180.937 352.676 182.099 352.676 183.416C352.676 184.733 352.953 185.912 353.508 186.952C354.063 187.957 354.825 188.755 355.796 189.344C356.767 189.899 357.876 190.176 359.124 190.176Z" fill="white"/>
<path d="M381.936 196.52C380.688 196.52 379.665 196.104 378.868 195.272C378.07 194.44 377.672 193.417 377.672 192.204C377.672 190.991 378.07 189.968 378.868 189.136C379.665 188.304 380.688 187.888 381.936 187.888C383.149 187.888 384.154 188.304 384.952 189.136C385.749 189.968 386.148 190.991 386.148 192.204C386.148 193.417 385.749 194.44 384.952 195.272C384.154 196.104 383.149 196.52 381.936 196.52Z" fill="#FFF507"/>
</svg>
